<svg width="148" height="45" viewBox="0 0 148 45" fill="none" xmlns="http://www.w3.org/2000/svg">
<path fill-rule="evenodd" clip-rule="evenodd" d="M135.501 38.7461C134.104 38.7461 132.975 38.4604 131.724 37.7944C131.667 37.7651 131.623 37.7145 131.603 37.6534C131.582 37.5922 131.586 37.5253 131.613 37.467L132.812 34.8784C132.827 34.8467 132.848 34.8184 132.874 34.795C132.9 34.7716 132.93 34.7537 132.963 34.7423C133.032 34.722 133.106 34.7288 133.17 34.7614C133.84 35.1236 134.497 35.3059 135.121 35.3059C135.89 35.3059 136.455 35.0572 137.028 33.804L131.972 21.8767H128.671V33.8051C128.671 33.8736 128.643 33.939 128.595 33.987C128.546 34.0351 128.481 34.0619 128.412 34.0616H124.877C124.844 34.0618 124.81 34.0553 124.779 34.0424C124.748 34.0296 124.719 34.0108 124.695 33.987C124.671 33.9631 124.652 33.9348 124.639 33.9036C124.626 33.8724 124.62 33.839 124.619 33.8051V21.8767H122.922C122.888 21.877 122.855 21.8707 122.823 21.858C122.792 21.8453 122.764 21.8266 122.74 21.8029C122.716 21.7792 122.696 21.7509 122.683 21.7198C122.67 21.6886 122.663 21.6552 122.663 21.6214V18.6187C122.664 18.5505 122.691 18.4854 122.74 18.4376C122.788 18.3897 122.854 18.3631 122.922 18.3634H124.619V17.6265C124.619 14.2065 126.346 12.3975 129.611 12.3975C130.952 12.3975 131.849 12.609 132.55 12.8138C132.602 12.8292 132.648 12.8613 132.681 12.905C132.713 12.9488 132.731 13.002 132.731 13.0568V15.9874C132.731 16.0283 132.722 16.0686 132.704 16.1052C132.685 16.1417 132.659 16.1734 132.626 16.1978C132.592 16.2207 132.553 16.2356 132.513 16.2413C132.472 16.2469 132.431 16.2432 132.392 16.2304C131.729 16.0133 131.137 15.8681 130.4 15.8681C129.164 15.8681 128.613 16.4993 128.613 17.9134V18.3949H134.653C134.76 18.3949 134.857 18.459 134.893 18.558L139.024 29.1577L142.793 18.5659C142.811 18.5153 142.844 18.4716 142.888 18.4409C142.932 18.4103 142.984 18.3942 143.038 18.3949H146.718C146.805 18.3949 146.882 18.4354 146.931 18.504C146.955 18.5383 146.969 18.5777 146.974 18.6188C146.979 18.6599 146.973 18.7016 146.958 18.7402L140.825 34.3316C139.553 37.5491 138.11 38.7461 135.501 38.7461ZM119.007 16.4576C117.607 16.4576 116.469 15.3416 116.469 13.9635C116.469 12.5842 117.607 11.4694 119.007 11.4694C120.406 11.4694 121.542 12.5842 121.542 13.9635C121.542 15.3416 120.406 16.4576 119.007 16.4576ZM111.17 21.8767V29.0666C111.17 30.2006 111.677 30.7069 112.811 30.7069C113.546 30.7069 114.204 30.5516 114.885 30.2153C114.925 30.1957 114.968 30.1865 115.013 30.1884C115.057 30.1904 115.1 30.2035 115.137 30.2265C115.175 30.249 115.205 30.2809 115.227 30.3189C115.248 30.357 115.26 30.3999 115.259 30.4436V33.291C115.259 33.3358 115.247 33.3797 115.224 33.4181C115.201 33.4565 115.168 33.4879 115.128 33.5093C114.137 34.0639 113.085 34.3215 111.817 34.3215C108.699 34.3215 107.118 32.7364 107.118 29.6122V21.8767H105.417C105.384 21.8769 105.351 21.8704 105.32 21.8577C105.288 21.8449 105.26 21.8261 105.236 21.8024C105.213 21.7787 105.194 21.7505 105.181 21.7194C105.168 21.6884 105.161 21.6551 105.161 21.6214V18.6345C105.161 18.4927 105.276 18.3791 105.417 18.3791H107.118V14.4641C107.118 14.3246 107.234 14.211 107.377 14.211H110.911C111.055 14.211 111.17 14.3246 111.17 14.4641V18.3791H115.06C115.202 18.3791 115.318 18.4927 115.318 18.6345V21.6214C115.318 21.6552 115.311 21.6886 115.298 21.7197C115.285 21.7508 115.266 21.7791 115.242 21.8028C115.218 21.8265 115.189 21.8453 115.158 21.858C115.127 21.8707 115.094 21.877 115.06 21.8767H111.17ZM96.3603 34.407C91.6288 34.407 87.9221 30.8374 87.9221 26.2789C87.9221 21.6698 91.6546 18.0607 96.4186 18.0607C101.167 18.0607 104.886 21.645 104.886 26.2204C104.886 30.8115 101.142 34.407 96.3603 34.407ZM96.3603 21.618C93.8174 21.618 91.9742 23.553 91.9742 26.2204C91.9742 28.8754 93.8847 30.8801 96.4186 30.8801C98.9772 30.8801 100.834 28.9451 100.834 26.2789C100.834 23.6205 98.9111 21.618 96.3603 21.618ZM79.374 34.3789C77.3838 34.3789 75.7502 33.651 74.4036 32.1637V38.4041C74.4034 38.4379 74.3964 38.4712 74.3832 38.5022C74.37 38.5332 74.3508 38.5613 74.3267 38.5849C74.3026 38.6084 74.2741 38.6269 74.2429 38.6393C74.2116 38.6518 74.1783 38.6578 74.1446 38.6572H70.6106C70.577 38.6578 70.5436 38.6518 70.5123 38.6393C70.4811 38.6269 70.4526 38.6084 70.4285 38.5849C70.4044 38.5613 70.3852 38.5332 70.372 38.5022C70.3588 38.4712 70.3519 38.4379 70.3516 38.4041V18.6345C70.3516 18.4927 70.4671 18.3791 70.6106 18.3791H74.1446C74.2882 18.3791 74.4036 18.4927 74.4036 18.6345V20.412C75.7502 18.8325 77.3838 18.0607 79.374 18.0607C83.074 18.0607 86.8199 20.862 86.8199 26.2204C86.8199 31.5765 83.074 34.3789 79.374 34.3789ZM78.5566 21.5899C76.1382 21.5899 74.3151 23.5789 74.3151 26.2204C74.3151 28.8607 76.1382 30.8509 78.5566 30.8509C81.0009 30.8509 82.7085 28.9462 82.7085 26.2204C82.7085 23.5361 80.9616 21.5899 78.5566 21.5899ZM62.2093 21.8914C67.0216 23.0411 68.9826 24.8299 68.9826 28.0586C68.9826 31.8791 66.0125 34.3496 61.42 34.3496C58.2154 34.3661 55.1173 33.1965 52.7183 31.0646C52.6932 31.0434 52.6726 31.0175 52.6576 30.9882C52.6427 30.959 52.6337 30.927 52.6312 30.8942C52.6287 30.8614 52.6327 30.8285 52.6431 30.7973C52.6534 30.7661 52.6698 30.7373 52.6914 30.7125L54.8531 28.1824C54.8752 28.1564 54.9023 28.1351 54.9327 28.1197C54.9631 28.1042 54.9962 28.0949 55.0302 28.0924C55.0989 28.0876 55.167 28.1088 55.2208 28.152C57.3242 29.9441 59.2034 30.7069 61.5075 30.7069C63.5828 30.7069 64.8711 29.826 64.8711 28.404C64.8711 27.1215 64.2342 26.406 60.4546 25.5487C56.018 24.4924 53.4493 23.1255 53.4493 19.2634C53.4493 15.6622 56.4272 13.1467 60.689 13.1467C63.5873 13.1467 66.0697 13.9916 68.2706 15.7309C68.3782 15.8152 68.3995 15.9671 68.3211 16.0763L66.3937 18.7504C66.3525 18.8066 66.2908 18.8442 66.2222 18.855C66.1533 18.8654 66.0832 18.848 66.0271 18.8066C64.1771 17.4499 62.4112 16.7906 60.6307 16.7906C58.7941 16.7906 57.5597 17.658 57.5597 18.9495C57.5597 20.3141 58.2615 20.9655 62.2093 21.8914ZM45.6759 23.9872C45.6591 24.2359 45.6434 24.4834 45.6188 24.7286C45.6042 24.8749 45.5829 25.0189 45.5661 25.1629C45.5392 25.3845 45.5134 25.605 45.4808 25.8232C45.4573 25.9762 45.4293 26.1281 45.4024 26.28C45.3665 26.4881 45.3317 26.6962 45.2902 26.9021C45.2588 27.0574 45.223 27.2104 45.1882 27.3645C45.1434 27.5648 45.0985 27.7639 45.0481 27.9619C45.0088 28.1171 44.9651 28.2701 44.9225 28.4242C44.8687 28.6177 44.8148 28.8113 44.7554 29.0036C44.6503 29.3465 44.5366 29.6868 44.4146 30.024C44.2379 30.5095 44.0454 30.989 43.8372 31.4618C43.692 31.7858 43.541 32.1073 43.3842 32.4259C43.2945 32.6047 43.2014 32.7803 43.1084 32.9557C43.0344 33.093 42.9615 33.2291 42.8852 33.3652C42.7861 33.5401 42.6848 33.7138 42.5814 33.8861C42.5029 34.0166 42.4255 34.1471 42.3448 34.2765C42.2361 34.4509 42.1228 34.6219 42.0085 34.7929C41.9266 34.9155 41.847 35.0392 41.7629 35.1596C41.6418 35.3351 41.5151 35.5061 41.3884 35.6782C41.3055 35.7907 41.2258 35.9032 41.1406 36.0146C41.0016 36.1969 40.857 36.3735 40.7112 36.5513C40.6338 36.6469 40.5587 36.7436 40.4802 36.8381C40.302 37.0496 40.117 37.2555 39.932 37.4614C39.8804 37.5165 39.8333 37.575 39.7817 37.6301C39.5407 37.89 39.2951 38.1443 39.0417 38.3929C38.9969 38.4379 38.9475 38.4806 38.9016 38.5256C38.6953 38.7266 38.4853 38.9235 38.2715 39.1163C38.1806 39.1984 38.0865 39.2749 37.9956 39.3548C37.8207 39.5066 37.6469 39.6585 37.4675 39.8047C37.3588 39.8936 37.2478 39.978 37.1379 40.0646C36.9697 40.1963 36.8027 40.3279 36.6311 40.4561C36.5112 40.545 36.3889 40.6294 36.2678 40.716L35.8878 40.9826C35.9236 40.9568 35.9629 40.9354 35.9999 40.9106C35.9573 40.9399 35.9135 40.9646 35.8709 40.9939C35.8351 41.0186 35.8003 41.0445 35.7644 41.0681C35.6355 41.1548 35.5054 41.238 35.3754 41.3213C35.154 41.4645 34.9301 41.6036 34.7038 41.7386L34.6253 41.7836C34.6421 41.7746 34.66 41.7656 34.6757 41.7555L34.4414 41.8916C34.2755 41.9884 34.1095 42.0829 33.9413 42.1751L33.7205 42.2921C33.5915 42.3608 33.4603 42.4283 33.3292 42.4946L33.2608 42.5284C33.1599 42.579 33.0612 42.6307 32.9592 42.6802C32.8224 42.7455 32.6856 42.8107 32.5465 42.8749L32.4344 42.9244C32.3111 42.9806 32.1878 43.0358 32.0633 43.0898L32.0095 43.1134C31.9007 43.1606 31.7897 43.2056 31.6798 43.2518C31.4883 43.3313 31.2955 43.4074 31.1013 43.4801C30.9701 43.5296 30.8401 43.578 30.7089 43.6253L30.5396 43.6871C30.3949 43.7378 30.2481 43.7861 30.1012 43.8334C29.9812 43.8727 29.8612 43.9121 29.7402 43.9493L29.6919 43.9639C29.5619 44.0044 29.4318 44.0426 29.3006 44.0798L28.9262 44.1855C28.7658 44.2283 28.6066 44.2721 28.4452 44.3126L28.3633 44.3306L28.1615 44.3801C28.1974 44.3722 28.231 44.361 28.2669 44.3531L28.0337 44.406C28.0752 44.3959 28.1189 44.3903 28.1615 44.3801C28.0628 44.4038 27.963 44.4217 27.8644 44.4442L27.8498 44.4476C27.6895 44.4825 27.5302 44.5196 27.3688 44.5511C27.2017 44.5838 27.0335 44.6119 26.8654 44.64C26.7667 44.6569 26.6692 44.6782 26.5705 44.694C26.6165 44.6861 26.6613 44.6749 26.7073 44.667L26.464 44.7075C26.4998 44.7019 26.5357 44.6996 26.5705 44.694L26.4057 44.7176L26.2734 44.7401C26.0502 44.7728 25.8249 44.7975 25.5995 44.8245C25.4538 44.8414 25.308 44.8628 25.16 44.8762L25.1264 44.8808H25.1051C25.0445 44.8864 24.9817 44.8886 24.9212 44.8943C24.7822 44.9066 24.6431 44.9145 24.5041 44.9246C24.0321 44.9584 23.5567 44.9797 23.0768 44.9842C23.0342 44.9842 22.9938 44.9899 22.9523 44.9899H22.7808C22.7404 44.9899 22.7023 44.9854 22.6619 44.9842C22.1711 44.979 21.6805 44.9583 21.1909 44.9224C21.0575 44.9122 20.9229 44.9044 20.7895 44.8931C20.7357 44.8875 20.6808 44.8864 20.6258 44.8808H20.6056C20.2063 44.84 19.8081 44.7882 19.4115 44.7255C19.4687 44.7345 19.527 44.739 19.5842 44.7469C19.4418 44.7255 19.2961 44.7131 19.1548 44.6906L18.953 44.6546C19.0068 44.6636 19.0595 44.6782 19.1133 44.6872C19.0169 44.6715 18.9227 44.649 18.8263 44.6321L18.7926 44.6265C18.7332 44.6164 18.676 44.6018 18.6177 44.5916C18.238 44.5237 17.8601 44.4464 17.4842 44.3599L17.5918 44.3812L17.4147 44.3408L17.4842 44.3599C17.3216 44.3216 17.1635 44.2733 17.0021 44.2305L17.0278 44.2373C17.011 44.2339 16.9953 44.2283 16.9785 44.2238L17.0021 44.2305C16.6758 44.1461 16.3495 44.0618 16.0288 43.9639L15.9885 43.9526C15.9448 43.9391 15.9022 43.9234 15.8584 43.9088L15.8382 43.902C15.6577 43.8446 15.4806 43.7783 15.3012 43.7164L15.5344 43.7962C15.4111 43.7546 15.2888 43.7108 15.1666 43.6669L15.3012 43.7164C15.0265 43.6219 14.7518 43.5274 14.4827 43.4227L14.347 43.3699C14.328 43.362 14.31 43.353 14.291 43.3463C14.1065 43.2717 13.923 43.1948 13.7405 43.1156C13.8604 43.1674 13.9815 43.2157 14.1015 43.2652C13.9232 43.1921 13.7461 43.1145 13.57 43.038C13.6272 43.0627 13.6833 43.0909 13.7405 43.1156C13.5521 43.0346 13.3615 42.9559 13.1754 42.8693L13.135 42.8524C13.1103 42.8411 13.0845 42.831 13.0599 42.8186C12.9713 42.7781 12.8872 42.7286 12.7998 42.687C12.6204 42.5993 12.441 42.5137 12.2638 42.4226C12.4152 42.5002 12.5699 42.5723 12.7235 42.6476C12.5036 42.54 12.2853 42.429 12.0687 42.3146C12.1349 42.3495 12.1977 42.3877 12.2638 42.4226C12.1147 42.345 11.9667 42.2685 11.8198 42.1886L11.766 42.1605C11.7111 42.1313 11.6572 42.0986 11.6034 42.0683C11.5328 42.03 11.4666 41.9861 11.3971 41.9456L11.3377 41.9119L11.368 41.9288C11.1247 41.7893 10.8847 41.6475 10.6482 41.5001C10.7188 41.544 10.7861 41.5935 10.8578 41.6374C10.7423 41.5676 10.6302 41.4934 10.517 41.4225L10.5069 41.4158L10.3342 41.3066C10.2468 41.2504 10.1638 41.1885 10.0775 41.1311C9.89245 41.0085 9.70297 40.8926 9.52133 40.7644C9.657 40.86 9.80164 40.9444 9.93955 41.0366C9.69736 40.8746 9.45294 40.716 9.21749 40.5439L9.26682 40.581C9.25 40.5698 9.2343 40.5563 9.21749 40.5439C8.99773 40.3819 8.78358 40.2131 8.56942 40.0444L8.55933 40.0365L8.55709 40.0354C8.46291 39.96 8.36648 39.888 8.2723 39.8115L8.27118 39.8104L8.23418 39.7789C7.97406 39.5651 7.71618 39.3469 7.46615 39.1219L7.44597 39.105L7.43027 39.0904C7.33833 39.0083 7.25312 38.9216 7.16342 38.8372C6.98627 38.673 6.80912 38.5088 6.63758 38.3389L6.61627 38.3186C6.54564 38.2489 6.47836 38.1758 6.40885 38.1049C6.46491 38.1623 6.51761 38.223 6.57479 38.2793C6.51761 38.2219 6.46379 38.1611 6.40661 38.1026L6.31467 38.0059C6.15882 37.8439 6.00185 37.6841 5.85048 37.5176L5.84824 37.5142C5.76191 37.4198 5.67782 37.323 5.59373 37.2274L5.5287 37.152C5.30038 36.8905 5.07758 36.6242 4.86045 36.3533C4.83803 36.3263 4.81673 36.297 4.79542 36.2689C4.58451 36.0036 4.37965 35.7335 4.181 35.4589C4.15633 35.424 4.13391 35.388 4.10924 35.3542C3.98324 35.1762 3.85952 34.9966 3.73812 34.8154C3.67645 34.7231 3.61255 34.6309 3.552 34.5364C3.52397 34.4936 3.4993 34.4497 3.47239 34.407C3.35825 34.228 3.24686 34.0472 3.13827 33.8647C3.12482 33.84 3.10912 33.8164 3.09455 33.7928C3.05306 33.7241 3.01045 33.6566 2.97009 33.5869C2.93982 33.5351 2.91291 33.4811 2.88376 33.4282C2.77873 33.2415 2.67631 33.0532 2.57655 32.8635C2.52833 32.7746 2.47788 32.688 2.43191 32.598C2.40276 32.5418 2.37697 32.4844 2.34894 32.4281C2.24957 32.2289 2.15387 32.0279 2.06191 31.8251C2.02491 31.7475 1.98567 31.6699 1.94979 31.5911L1.89148 31.455C1.78721 31.221 1.68967 30.9836 1.59436 30.7451L1.51588 30.555L1.48336 30.4661C1.37275 30.1786 1.26845 29.8886 1.17055 29.5965L1.13242 29.4885L1.12121 29.4536C0.843993 28.6179 0.617099 27.7663 0.441758 26.9032L0.432788 26.8582C0.414848 26.7694 0.402515 26.6794 0.385697 26.5916C0.336311 26.3367 0.291455 26.0809 0.251152 25.8244L0.234333 25.7254C0.216394 25.5994 0.205182 25.4711 0.189485 25.344C0.158203 25.1135 0.130916 24.8825 0.107636 24.651C0.105394 24.6285 0.100909 24.606 0.0997879 24.5824C0.0964242 24.552 0.0975455 24.5205 0.095303 24.489C0.0335311 23.8259 0.00173078 23.1604 0 22.4944C0 22.2052 0.0112121 21.9172 0.0224242 21.6304C0.0291515 21.4672 0.0358788 21.3041 0.0448485 21.141C0.058303 20.9239 0.0762424 20.709 0.095303 20.4941C0.0829697 20.6246 0.0661515 20.7551 0.0571818 20.8868C0.0661515 20.754 0.0840909 20.6235 0.095303 20.4907C0.109879 20.3287 0.124455 20.1679 0.142394 20.007C0.167061 19.7932 0.195091 19.5795 0.225364 19.3669C0.247788 19.2071 0.270212 19.0485 0.296 18.891V18.8899C0.330758 18.6795 0.37 18.4702 0.410364 18.2621V18.2599C0.440636 18.1035 0.470909 17.9471 0.504545 17.7919V17.7908C0.550191 17.5838 0.598781 17.3775 0.650303 17.172C0.687303 17.019 0.725424 16.8649 0.766909 16.713V16.7108C0.821848 16.5082 0.880152 16.3091 0.940697 16.11L0.941818 16.1055C0.986667 15.9547 1.03152 15.8029 1.07973 15.6544L1.08085 15.651C1.14476 15.4541 1.21315 15.2595 1.28267 15.0649L1.28491 15.0593C1.33761 14.9119 1.38918 14.7645 1.44524 14.6182L1.44636 14.6149C1.51924 14.4225 1.59661 14.2335 1.67397 14.0445L1.67733 14.0366C1.73676 13.8926 1.79618 13.7475 1.85785 13.6046L1.86009 13.6013C1.94407 13.4127 2.03041 13.2252 2.11909 13.0387C2.18524 12.8981 2.25027 12.7564 2.31979 12.618L2.32203 12.6135C2.41173 12.4324 2.50591 12.2546 2.60121 12.0769L2.60682 12.0656C2.6797 11.9295 2.75145 11.7911 2.8277 11.6561L2.82994 11.6516C2.92748 11.4773 3.03064 11.3051 3.13267 11.133L3.14052 11.1206C3.22012 10.9879 3.29861 10.854 3.38045 10.7224L3.38382 10.7179C3.48921 10.5491 3.59909 10.3837 3.70897 10.2184L3.71794 10.2038C3.80427 10.0755 3.88836 9.94613 3.97694 9.819L3.9803 9.81338C4.09242 9.65138 4.21015 9.49275 4.32676 9.333L4.33909 9.31725C4.43103 9.19238 4.52073 9.0675 4.61491 8.94487L4.61939 8.93925C4.73824 8.784 4.8627 8.63213 4.98715 8.47913L5.00061 8.46225C5.09815 8.34188 5.19458 8.2215 5.29436 8.10338C5.29551 8.10125 5.29703 8.09934 5.29885 8.09775C5.42442 7.94925 5.55561 7.803 5.68567 7.65788L5.70248 7.63988C5.80564 7.524 5.90655 7.40812 6.01194 7.2945L6.01754 7.29C6.14985 7.14713 6.28776 7.00875 6.42342 6.87038L6.44248 6.85125C6.55124 6.741 6.65776 6.62963 6.76876 6.52163C6.77058 6.52003 6.77209 6.51813 6.77324 6.516L6.81361 6.4755L6.77548 6.51488C6.89545 6.39788 7.01991 6.28538 7.14212 6.17063C7.04121 6.26513 6.93694 6.35625 6.83715 6.45188C6.95488 6.33825 7.07821 6.22913 7.19818 6.11775L7.21948 6.09863C7.33385 5.99288 7.44597 5.886 7.56145 5.78363L7.56706 5.77913C7.69151 5.66775 7.82158 5.562 7.94939 5.45288C7.84176 5.544 7.73188 5.63063 7.62649 5.724C7.75206 5.61375 7.88212 5.50913 8.00882 5.40225C8.01681 5.39523 8.02504 5.38847 8.03348 5.382C8.15121 5.283 8.26782 5.18175 8.38779 5.085L8.39339 5.0805L8.4517 5.03212L8.39452 5.07938C8.52458 4.97475 8.658 4.87462 8.7903 4.77338C8.67818 4.86 8.5627 4.94325 8.4517 5.03212C8.58288 4.92637 8.71967 4.82625 8.85421 4.72388L8.88 4.70363C9.00333 4.61025 9.1233 4.51575 9.24776 4.42462L9.25224 4.42125L9.30942 4.3785L9.25561 4.419C9.39127 4.32 9.52918 4.22662 9.66597 4.131C9.54824 4.21425 9.42603 4.293 9.30942 4.3785C9.44733 4.27725 9.59085 4.18275 9.73212 4.086L9.76127 4.06575C9.88685 3.978 10.0113 3.88912 10.1391 3.80475L10.1436 3.80137L10.1985 3.76425L10.1492 3.798C10.2894 3.70575 10.434 3.61912 10.5753 3.52912C10.4508 3.60787 10.3219 3.68325 10.1985 3.76425C10.3443 3.66863 10.4934 3.57975 10.6414 3.4875L10.6739 3.46837C10.8029 3.38738 10.9307 3.30413 11.0619 3.2265L11.0664 3.22425C11.0835 3.21272 11.1011 3.20184 11.1191 3.19162L11.0742 3.21975C11.22 3.13312 11.3691 3.05212 11.5171 2.96888C11.3848 3.04313 11.2491 3.114 11.1191 3.19162C11.2704 3.10162 11.4274 3.01837 11.581 2.93287L11.6169 2.91262C11.7492 2.8395 11.8792 2.763 12.0127 2.691C12.0143 2.69069 12.0159 2.68991 12.0172 2.68875L12.0676 2.66175L12.0272 2.68425C12.1797 2.60325 12.3367 2.52787 12.4903 2.45025C12.3502 2.52112 12.2066 2.5875 12.0676 2.66175C12.2268 2.57737 12.3894 2.50087 12.5497 2.41987C12.5631 2.41418 12.5762 2.4078 12.589 2.40075C12.7235 2.33437 12.8558 2.26463 12.9926 2.2005L12.996 2.19825L13.0442 2.17463L13.0094 2.19263C13.1698 2.11725 13.3335 2.0475 13.496 1.9755C13.3458 2.043 13.1933 2.10488 13.0442 2.17463C13.2101 2.097 13.3794 2.02725 13.5476 1.953L13.5902 1.93388C13.7259 1.87425 13.8604 1.81125 13.9983 1.755L14.0017 1.75275C14.0168 1.74685 14.0318 1.74048 14.0465 1.73362L14.0174 1.74713C14.1878 1.67625 14.3616 1.61325 14.5343 1.54688C14.3717 1.60875 14.208 1.66837 14.0465 1.73362C14.2192 1.66275 14.3964 1.59975 14.5713 1.53225L14.6195 1.51425C14.7563 1.46137 14.8908 1.40625 15.0298 1.35563H15.0321C15.046 1.3497 15.0603 1.34444 15.0747 1.33988L15.05 1.34887C15.235 1.2825 15.4245 1.224 15.6118 1.16213C15.4324 1.22175 15.2518 1.27688 15.0747 1.33988C15.2552 1.27575 15.4391 1.2195 15.6207 1.15875L15.6768 1.14075C15.8136 1.09575 15.947 1.04738 16.0838 1.00575H16.086L16.1253 0.993375L16.1062 1.00013C16.3013 0.9405 16.4998 0.88875 16.696 0.83475L16.6657 0.84375L16.7442 0.82125L16.8126 0.802125C16.9292 0.770625 17.0435 0.73575 17.1613 0.705375H17.1624L17.1972 0.696375L17.1859 0.69975C17.3878 0.649125 17.5929 0.606375 17.797 0.561375L17.7252 0.577125C17.8284 0.5535 17.9304 0.52875 18.0347 0.507375L18.1334 0.484875C18.176 0.475875 18.2175 0.464625 18.2589 0.45675L18.2601 0.455625L18.2903 0.451125L18.2858 0.45225C18.4966 0.4095 18.7108 0.37575 18.9249 0.33975L18.8106 0.358875C19.0012 0.32625 19.1895 0.288 19.3802 0.259875L19.3813 0.25875L19.4003 0.2565H19.4048C19.5752 0.230625 19.749 0.21375 19.9206 0.19125C19.8051 0.205875 19.6874 0.219375 19.5719 0.235125C19.7423 0.2115 19.915 0.19125 20.0865 0.171L19.9206 0.19125C20.119 0.1665 20.3164 0.13725 20.5171 0.117H20.5182L20.5417 0.11475H20.5428C20.7122 0.097875 20.8837 0.088875 21.0541 0.0765L20.8871 0.088875C21.0283 0.077625 21.1685 0.066375 21.3098 0.057375L21.0541 0.0765C21.2593 0.06075 21.4634 0.0405 21.6697 0.030375H21.6708L21.6966 0.02925C21.867 0.02025 22.0397 0.02025 22.2101 0.01575L22.1148 0.018C22.3648 0.010125 22.6137 0 22.866 0C35.4953 0 45.732 10.0699 45.732 22.4944C45.732 22.8712 45.7208 23.2459 45.7028 23.6182C45.6961 23.742 45.6838 23.8646 45.6759 23.9872ZM9.59982 29.6899C9.77361 30.4436 10.5394 30.9161 11.3063 30.7429C19.2647 28.9541 26.0233 29.6831 31.3917 32.9119C32.0644 33.3146 32.9423 33.1087 33.3527 32.4439C33.45 32.2869 33.5151 32.112 33.544 31.9294C33.5729 31.7468 33.565 31.5603 33.521 31.3807C33.4769 31.2012 33.3974 31.0324 33.2872 30.8842C33.1771 30.736 33.0384 30.6115 32.8795 30.5179C26.8519 26.8931 19.3813 26.0505 10.6706 28.0102C10.4895 28.0484 10.3179 28.1225 10.1657 28.228C10.0135 28.3335 9.88374 28.4683 9.78405 28.6247C9.68437 28.7811 9.61673 28.9558 9.5851 29.1387C9.55347 29.3216 9.55847 29.5089 9.59982 29.6899ZM8.68715 23.1075C8.97418 24.0334 9.96982 24.5554 10.9139 24.2752C18.1838 22.1051 27.5538 23.1806 33.698 26.8976C34.5356 27.4027 35.6344 27.1451 36.1501 26.3216C36.2723 26.1254 36.3542 25.9066 36.3909 25.6782C36.4276 25.4497 36.4184 25.2162 36.3639 24.9914C36.3093 24.7666 36.2106 24.555 36.0733 24.369C35.9361 24.183 35.7632 24.0265 35.5648 23.9085C28.5057 19.6436 18.1827 18.441 9.87676 20.9205C9.65479 20.9845 9.4477 21.0921 9.26747 21.2371C9.08724 21.382 8.93747 21.5613 8.82682 21.7648C8.71618 21.9682 8.64686 22.1916 8.62288 22.4221C8.59891 22.6526 8.62075 22.8855 8.68715 23.1075ZM38.5742 16.3226C30.0888 11.367 16.6623 10.9013 8.58512 13.3144C8.31872 13.3909 8.07015 13.5198 7.85387 13.6936C7.63758 13.8675 7.45791 14.0827 7.3253 14.3268C7.19269 14.571 7.10979 14.8391 7.08142 15.1157C7.05305 15.3923 7.07978 15.6718 7.16006 15.9379C7.50203 17.0505 8.69612 17.6771 9.82742 17.3396C16.863 15.2393 29.0203 15.6364 36.3923 19.9417C36.8798 20.2273 37.4593 20.31 38.0068 20.1723C38.5543 20.0346 39.0264 19.6874 39.322 19.2049C39.4652 18.9673 39.5594 18.7034 39.5993 18.4287C39.6391 18.154 39.6238 17.8741 39.5541 17.6055C39.4843 17.3368 39.3617 17.0849 39.1934 16.8646C39.0252 16.6443 38.8146 16.46 38.5742 16.3226ZM22.8055 0H22.866C22.6462 0 22.4287 0.010125 22.2101 0.01575C22.4085 0.010125 22.6059 0 22.8055 0ZM120.756 18.3791C120.899 18.3791 121.015 18.4927 121.015 18.6345V33.8051C121.014 33.8736 120.986 33.939 120.938 33.987C120.889 34.0351 120.824 34.0619 120.756 34.0616H117.22C117.152 34.0619 117.087 34.0351 117.038 33.987C116.99 33.939 116.962 33.8736 116.961 33.8051V18.6345C116.961 18.4927 117.078 18.3791 117.22 18.3791H120.756ZM145.75 29.2466C147.011 29.2466 147.992 30.2569 147.992 31.4831C147.991 32.0815 147.752 32.6547 147.33 33.0768C146.907 33.499 146.335 33.7354 145.739 33.7342C145.444 33.7363 145.153 33.6799 144.88 33.5683C144.608 33.4567 144.36 33.2921 144.152 33.0839C143.943 32.8758 143.778 32.6283 143.665 32.3556C143.552 32.083 143.495 31.7907 143.495 31.4955C143.495 30.2681 144.489 29.2466 145.75 29.2466ZM145.739 33.5093C146.004 33.5118 146.268 33.4611 146.514 33.3602C146.76 33.2593 146.984 33.1102 147.172 32.9215C147.36 32.7328 147.509 32.5085 147.609 32.2615C147.71 32.0145 147.76 31.7499 147.758 31.4831C147.761 31.2177 147.711 30.9544 147.611 30.7087C147.511 30.4629 147.363 30.2397 147.176 30.0521C146.989 29.8644 146.767 29.7163 146.522 29.6162C146.277 29.5161 146.014 29.4662 145.75 29.4694C144.602 29.4694 143.732 30.3795 143.732 31.4955C143.732 32.6115 144.595 33.5093 145.739 33.5093ZM146.794 31.0005C146.794 31.3841 146.57 31.6204 146.246 31.7137L146.881 32.5991H146.346L145.776 31.7857H145.284V32.5991H144.836V30.2512H145.887C146.434 30.2512 146.794 30.5303 146.794 31.0005ZM145.284 30.6529V31.3965H145.869C146.16 31.3965 146.334 31.2547 146.334 31.0241C146.334 30.7834 146.16 30.6529 145.869 30.6529H145.284Z" fill="#1DB954"/>
</svg>
